<mxfile host="Electron" agent="Mozilla/5.0 (Macintosh; Intel Mac OS X 10_15_7) AppleWebKit/537.36 (KHTML, like Gecko) draw.io/24.7.8 Chrome/128.0.6613.36 Electron/32.0.1 Safari/537.36" version="24.7.8">
  <diagram name="第 1 页" id="t2ewgCgAzbBRNsm4YQQK">
    <mxGraphModel dx="994" dy="726" grid="1" gridSize="10" guides="1" tooltips="1" connect="1" arrows="1" fold="1" page="1" pageScale="1" pageWidth="827" pageHeight="1169" math="0" shadow="0">
      <root>
        <mxCell id="0" />
        <mxCell id="1" parent="0" />
        <mxCell id="KTlh5fkEzJNQhNYiEp_2-1" value="&lt;font face=&quot;monaco&quot;&gt;count&lt;/font&gt;" style="rounded=0;whiteSpace=wrap;html=1;strokeWidth=2;fillColor=#dae8fc;strokeColor=#6c8ebf;comic=1;jiggle=3;" vertex="1" parent="1">
          <mxGeometry x="110" y="210" width="190" height="50" as="geometry" />
        </mxCell>
        <mxCell id="KTlh5fkEzJNQhNYiEp_2-2" value="&lt;font face=&quot;Monaco&quot;&gt;&lt;b&gt;hmap&lt;/b&gt;&lt;/font&gt;" style="text;html=1;align=center;verticalAlign=middle;resizable=0;points=[];autosize=1;strokeColor=none;fillColor=none;fontSize=12;fontFamily=Helvetica;fontColor=default;" vertex="1" parent="1">
          <mxGeometry x="180" y="175" width="50" height="30" as="geometry" />
        </mxCell>
        <mxCell id="KTlh5fkEzJNQhNYiEp_2-3" value="&lt;font face=&quot;monaco&quot;&gt;...&lt;/font&gt;" style="rounded=0;whiteSpace=wrap;html=1;strokeWidth=2;fillColor=#dae8fc;strokeColor=#6c8ebf;comic=1;jiggle=3;" vertex="1" parent="1">
          <mxGeometry x="110" y="260" width="190" height="50" as="geometry" />
        </mxCell>
        <mxCell id="KTlh5fkEzJNQhNYiEp_2-4" value="&lt;font face=&quot;Monaco&quot;&gt;&lt;b&gt;hmap -&amp;gt; buckets&lt;/b&gt;&lt;/font&gt;" style="text;html=1;align=center;verticalAlign=middle;resizable=0;points=[];autosize=1;strokeColor=none;fillColor=none;fontSize=12;fontFamily=Helvetica;fontColor=default;" vertex="1" parent="1">
          <mxGeometry x="349" y="110" width="130" height="30" as="geometry" />
        </mxCell>
        <mxCell id="KTlh5fkEzJNQhNYiEp_2-5" value="&lt;font face=&quot;monaco&quot;&gt;B = 2&lt;/font&gt;" style="rounded=0;whiteSpace=wrap;html=1;strokeWidth=2;fillColor=#dae8fc;strokeColor=#6c8ebf;comic=1;jiggle=3;" vertex="1" parent="1">
          <mxGeometry x="110" y="310" width="190" height="50" as="geometry" />
        </mxCell>
        <mxCell id="KTlh5fkEzJNQhNYiEp_2-6" value="&lt;font face=&quot;monaco&quot;&gt;...&lt;/font&gt;" style="rounded=0;whiteSpace=wrap;html=1;strokeWidth=2;fillColor=#dae8fc;strokeColor=#6c8ebf;comic=1;jiggle=3;" vertex="1" parent="1">
          <mxGeometry x="110" y="360" width="190" height="50" as="geometry" />
        </mxCell>
        <mxCell id="KTlh5fkEzJNQhNYiEp_2-17" style="edgeStyle=orthogonalEdgeStyle;rounded=0;orthogonalLoop=1;jettySize=auto;html=1;entryX=0;entryY=0;entryDx=0;entryDy=0;" edge="1" parent="1" source="KTlh5fkEzJNQhNYiEp_2-7" target="KTlh5fkEzJNQhNYiEp_2-9">
          <mxGeometry relative="1" as="geometry">
            <Array as="points">
              <mxPoint x="370" y="435" />
              <mxPoint x="370" y="280" />
            </Array>
          </mxGeometry>
        </mxCell>
        <mxCell id="KTlh5fkEzJNQhNYiEp_2-7" value="&lt;font face=&quot;monaco&quot;&gt;buckets&lt;/font&gt;" style="rounded=0;whiteSpace=wrap;html=1;strokeWidth=2;fillColor=#f8cecc;strokeColor=#b85450;comic=1;jiggle=3;" vertex="1" parent="1">
          <mxGeometry x="110" y="410" width="190" height="50" as="geometry" />
        </mxCell>
        <mxCell id="KTlh5fkEzJNQhNYiEp_2-8" value="&lt;font face=&quot;monaco&quot;&gt;...&lt;/font&gt;" style="rounded=0;whiteSpace=wrap;html=1;strokeWidth=2;fillColor=#dae8fc;strokeColor=#6c8ebf;comic=1;jiggle=3;" vertex="1" parent="1">
          <mxGeometry x="110" y="510" width="190" height="50" as="geometry" />
        </mxCell>
        <mxCell id="KTlh5fkEzJNQhNYiEp_2-9" value="&lt;font face=&quot;monaco&quot;&gt;buckets[0]&lt;/font&gt;" style="rounded=0;whiteSpace=wrap;html=1;strokeWidth=2;fillColor=#f8cecc;strokeColor=#b85450;comic=1;jiggle=3;" vertex="1" parent="1">
          <mxGeometry x="440" y="280" width="190" height="50" as="geometry" />
        </mxCell>
        <mxCell id="KTlh5fkEzJNQhNYiEp_2-10" value="&lt;font face=&quot;Monaco&quot;&gt;&lt;b&gt;[]bmap&lt;/b&gt;&lt;/font&gt;" style="text;html=1;align=center;verticalAlign=middle;resizable=0;points=[];autosize=1;strokeColor=none;fillColor=none;fontSize=12;fontFamily=Helvetica;fontColor=default;" vertex="1" parent="1">
          <mxGeometry x="490" y="175" width="70" height="30" as="geometry" />
        </mxCell>
        <mxCell id="KTlh5fkEzJNQhNYiEp_2-14" value="&lt;font face=&quot;monaco&quot;&gt;buckets[1]&lt;/font&gt;" style="rounded=0;whiteSpace=wrap;html=1;strokeWidth=2;fillColor=#f8cecc;strokeColor=#b85450;comic=1;jiggle=3;" vertex="1" parent="1">
          <mxGeometry x="440" y="330" width="190" height="50" as="geometry" />
        </mxCell>
        <mxCell id="KTlh5fkEzJNQhNYiEp_2-15" value="&lt;font face=&quot;monaco&quot;&gt;buckets[2]&lt;/font&gt;" style="rounded=0;whiteSpace=wrap;html=1;strokeWidth=2;fillColor=#f8cecc;strokeColor=#b85450;comic=1;jiggle=3;" vertex="1" parent="1">
          <mxGeometry x="440" y="380" width="190" height="50" as="geometry" />
        </mxCell>
        <mxCell id="KTlh5fkEzJNQhNYiEp_2-16" value="&lt;font face=&quot;monaco&quot;&gt;buckets[3]&lt;/font&gt;" style="rounded=0;whiteSpace=wrap;html=1;strokeWidth=2;fillColor=#f8cecc;strokeColor=#b85450;comic=1;jiggle=3;" vertex="1" parent="1">
          <mxGeometry x="440" y="430" width="190" height="50" as="geometry" />
        </mxCell>
        <mxCell id="KTlh5fkEzJNQhNYiEp_2-18" value="&lt;font face=&quot;monaco&quot;&gt;oldbuckets&lt;/font&gt;" style="rounded=0;whiteSpace=wrap;html=1;strokeWidth=2;fillColor=#f8cecc;strokeColor=#b85450;comic=1;jiggle=3;" vertex="1" parent="1">
          <mxGeometry x="110" y="460" width="190" height="50" as="geometry" />
        </mxCell>
        <mxCell id="KTlh5fkEzJNQhNYiEp_2-22" style="edgeStyle=orthogonalEdgeStyle;rounded=0;orthogonalLoop=1;jettySize=auto;html=1;entryX=0;entryY=0;entryDx=0;entryDy=0;" edge="1" parent="1" source="KTlh5fkEzJNQhNYiEp_2-19" target="KTlh5fkEzJNQhNYiEp_2-20">
          <mxGeometry relative="1" as="geometry">
            <Array as="points">
              <mxPoint x="370" y="585" />
              <mxPoint x="370" y="680" />
            </Array>
          </mxGeometry>
        </mxCell>
        <mxCell id="KTlh5fkEzJNQhNYiEp_2-19" value="&lt;font face=&quot;monaco&quot;&gt;extra&lt;/font&gt;" style="rounded=0;whiteSpace=wrap;html=1;strokeWidth=2;fillColor=#d5e8d4;strokeColor=#82b366;comic=1;jiggle=3;" vertex="1" parent="1">
          <mxGeometry x="110" y="560" width="190" height="50" as="geometry" />
        </mxCell>
        <mxCell id="KTlh5fkEzJNQhNYiEp_2-28" style="edgeStyle=orthogonalEdgeStyle;rounded=0;orthogonalLoop=1;jettySize=auto;html=1;entryX=1;entryY=1;entryDx=0;entryDy=0;dashed=1;" edge="1" parent="1" source="KTlh5fkEzJNQhNYiEp_2-20" target="KTlh5fkEzJNQhNYiEp_2-25">
          <mxGeometry relative="1" as="geometry">
            <Array as="points">
              <mxPoint x="680" y="705" />
              <mxPoint x="680" y="572" />
            </Array>
          </mxGeometry>
        </mxCell>
        <mxCell id="KTlh5fkEzJNQhNYiEp_2-20" value="&lt;font face=&quot;monaco&quot;&gt;overflow *[]*bmap&lt;/font&gt;" style="rounded=0;whiteSpace=wrap;html=1;strokeWidth=2;fillColor=#d5e8d4;strokeColor=#82b366;comic=1;jiggle=3;" vertex="1" parent="1">
          <mxGeometry x="440" y="680" width="190" height="50" as="geometry" />
        </mxCell>
        <mxCell id="KTlh5fkEzJNQhNYiEp_2-21" value="&lt;font face=&quot;Monaco&quot;&gt;&lt;b&gt;mapextra&lt;/b&gt;&lt;/font&gt;" style="text;html=1;align=center;verticalAlign=middle;resizable=0;points=[];autosize=1;strokeColor=none;fillColor=none;fontSize=12;fontFamily=Helvetica;fontColor=default;" vertex="1" parent="1">
          <mxGeometry x="475" y="600" width="80" height="30" as="geometry" />
        </mxCell>
        <mxCell id="KTlh5fkEzJNQhNYiEp_2-23" value="&lt;font face=&quot;monaco&quot;&gt;oldoverflow *[]*bmap&lt;/font&gt;" style="rounded=0;whiteSpace=wrap;html=1;strokeWidth=2;fillColor=#dae8fc;strokeColor=#6c8ebf;comic=1;jiggle=3;" vertex="1" parent="1">
          <mxGeometry x="440" y="730" width="190" height="50" as="geometry" />
        </mxCell>
        <mxCell id="KTlh5fkEzJNQhNYiEp_2-24" value="&lt;font face=&quot;monaco&quot;&gt;nextoverflow *bmap&lt;/font&gt;" style="rounded=0;whiteSpace=wrap;html=1;strokeWidth=2;fillColor=#dae8fc;strokeColor=#6c8ebf;comic=1;jiggle=3;" vertex="1" parent="1">
          <mxGeometry x="440" y="780" width="190" height="50" as="geometry" />
        </mxCell>
        <mxCell id="KTlh5fkEzJNQhNYiEp_2-25" value="&lt;font face=&quot;monaco&quot;&gt;buckets[...]&lt;/font&gt;" style="rounded=0;whiteSpace=wrap;html=1;strokeWidth=2;fillColor=#d5e8d4;strokeColor=#82b366;comic=1;jiggle=3;" vertex="1" parent="1">
          <mxGeometry x="440" y="482" width="190" height="90" as="geometry" />
        </mxCell>
      </root>
    </mxGraphModel>
  </diagram>
</mxfile>
